<svg data-v-0dd9719b="" version="1.0" xmlns="http://www.w3.org/2000/svg" xmlns:xlink="http://www.w3.org/1999/xlink" width="100%" height="100%" viewBox="0 0 340.000000 250.000000" preserveAspectRatio="xMidYMid meet" color-interpolation-filters="sRGB" style="margin: auto;"> <rect data-v-0dd9719b="" x="0" y="0" width="100%" height="100%" fill="#fff" fill-opacity="1" class="background"></rect> <rect data-v-0dd9719b="" x="0" y="0" width="100%" height="100%" fill="url(#watermark)" fill-opacity="1" class="watermarklayer"></rect> <g data-v-0dd9719b="" fill="#333" class="icon-text-wrapper icon-svg-group iconsvg" transform="translate(48.38999938964844,94.96395683288574)"><g class="iconsvg-imagesvg" transform="translate(0,0)"><g><rect fill="#333" fill-opacity="0" stroke-width="2" x="0" y="0" width="60" height="60.07208650380456" class="image-rect"></rect> <svg x="0" y="0" width="60" height="60.07208650380456" filtersec="colorsb9607525656" class="image-svg-svg primary" style="overflow: visible;"><svg xmlns="http://www.w3.org/2000/svg" viewBox="0 -0.00001430726933904225 99.8800048828125 100.00004577636719"><g fill-rule="evenodd"><path d="M10.85 81.18L46.64 87V76.88l-40.3-2.39a49.59 49.59 0 0 0 4.51 6.69zM51.52 100v-8.74l-37.47-6.45A49.85 49.85 0 0 0 49.94 100h1.58zM1.57 62.7l63.7 1.11v10L3.15 67.68a48.89 48.89 0 0 1-1.58-5zM.49 57.48l56.82 3.27V50.54L0 52.53c.08 1.67.25 3.32.49 4.95zM0 47.19L44.45 49V38.39l-43.94 4C.27 44 .11 45.58 0 47.19zM1.62 37.09l32.83-1.35v-10l-30.66 5a49 49 0 0 0-2.17 6.35zM6.32 25.55l35.4-3.08V11.64l-30 6.12a49.44 49.44 0 0 0-5.41 7.79zM49.63 0v9.2L15.26 14A49.84 49.84 0 0 1 49.63 0z" fill="#2491eb"></path><path d="M90 80l-43.36 7V76.88l47.12-2.8A50.6 50.6 0 0 1 90 80zM51.52 100v-8.74l34.33-6.48A49.82 49.82 0 0 1 51.52 100zM96.25 68.86l-31 5v-10l33-1.08a49 49 0 0 1-2 6.13zM99.42 57.18l-42.11 3.57V50.54l42.57 1.71c-.07 1.66-.23 3.31-.46 4.93zM99.88 47.67L44.45 49V38.39l54.81 3.38a49.74 49.74 0 0 1 .62 5.9zM98.19 36.88l-63.74-1.14v-10l62 5.95a48.69 48.69 0 0 1 1.72 5.2zM93.78 26l-52.06-3.53V11.64l47.39 7.29a50.45 50.45 0 0 1 4.67 7zM49.63 0v9.2l35.18 5A49.82 49.82 0 0 0 49.94 0z" fill="#145593"></path></g></svg></svg> <!----></g></g> <g transform="translate(67,2.599794387817383)"><g data-gra="path-name" fill-rule="" class="tp-name iconsvg-namesvg" transform="translate(0,0)"><g transform="scale(1)"><g><path d="M26.46-25.02L41.53-25.02 41.53-3.69Q41.53 0.22 40.21 1.87 38.88 3.51 36.63 4L36.63 4Q35.41 4.23 32.13 4.23L32.13 4.23 29.7 4.23Q29.7 2.38 29.36 0.83 29.02-0.72 28.08-2.75L28.08-2.75 29.92-2.75Q30.91-2.75 31.68-2.97L31.68-2.97 26.46-2.97 26.46 3.78 18.36 3.78 18.36-2.97 11.97-2.97 11.97-8.96 18.36-8.96 18.36-9.99 12.2-9.99 12.2-15.43 13.86-15.43 12.64-17.59 14.49-18.13 11.52-18.13 11.52 4.23 3.42 4.23 3.42-25.02 18.36-25.02 18.36-26.28 2.43-26.28 2.43-33.48 18.36-33.48 18.36-35.46 26.46-35.46 26.46-33.48 42.61-33.48 42.61-26.28 26.46-26.28 26.46-25.02ZM32.94-3.92Q33.25-4.37 33.34-5.08 33.44-5.8 33.44-6.97L33.44-6.97 33.44-8.82 33.44-18.13 28.71-18.13 32.13-17.14 31.14-15.43 32.67-15.43 32.67-9.99 26.46-9.99 26.46-8.96 32.94-8.96 32.94-3.92ZM23.13-15.43L24.97-18.13 20.11-18.13 21.96-15.43 23.13-15.43ZM48.6-22.18L48.6-32.76 63.45-32.76Q62.82-34.56 62.41-35.41L62.41-35.41 71.64-35.41Q72.09-34.38 72.58-32.76L72.58-32.76 86.67-32.76 86.67-22.18 78.57-22.18 78.57-24.84 56.7-24.84 56.7-22.18 48.6-22.18ZM72.63-12.6L72.63-0.14Q72.63 2.02 71.8 2.92 70.97 3.82 69.61 4.14L69.61 4.14Q69.03 4.27 60.75 4.27L60.75 4.27 57.33 4.27Q57.42 2.88 57.2 0.52 56.97-1.84 56.43-3.82L56.43-3.82 61.83-3.82Q63.09-3.82 63.67-4.25 64.26-4.68 64.39-5.4 64.53-6.12 64.53-7.47L64.53-7.47 64.53-12.6 47.52-12.6 47.52-20.52 87.8-20.52 87.8-12.6 72.63-12.6ZM128.97-8.46Q130.5-6.17 134.01-2.16L134.01-2.16Q131.09 0.58 129.06 4.27L129.06 4.27Q126.77 1.62 125.06-1.03L125.06-1.03Q122.98 1.89 119.66 4.41L119.66 4.41Q118.75 2.92 117.54 1.44L117.54 1.44 112.19 4.46Q111.11 0.85 109.26-1.17L109.26-1.17 109.35-1.21Q110.84-2.21 110.84-5.54L110.84-5.54 110.84-7.29 109.44-7.29Q109.26-2.79 108.61-0.49 107.95 1.8 106.29 4.37L106.29 4.37Q103.59 2.7 100.66 1.93L100.66 1.93 100.66 4.27 93.47 4.27 93.47-9.31 92.66-8.73Q92.43-13.32 90.94-17.32L90.94-17.32Q92.25-18.4 93.22-19.66 94.19-20.93 95.08-22.54L95.08-22.54 94.77-22.27Q93.06-25.52 91.03-27.9L91.03-27.9Q92.47-28.93 94-30.94 95.53-32.94 96.75-35.19L96.75-35.19 105.16-35.19Q104.76-34.29 104.08-33.12L104.08-33.12 106.61-33.12 106.61-28.26 107.46-28.26 107.46-35.19 113.44-35.19 113.44-28.26 114.21-28.26 114.21-33.12 119.07-33.12 119.07-27Q120.47-30.69 121.32-35.23L121.32-35.23 128.38-35.23Q127.71-32.31 127.26-30.69L127.26-30.69 133.02-30.69 133.02-22.9 131.94-22.9Q131.09-14.4 128.97-8.46L128.97-8.46ZM101.83-29.74Q100.03-27.27 97.83-25.06L97.83-25.06 101.83-25.11 101.83-29.74ZM124.69-22.9Q124.34-22 124.11-21.6L124.11-21.6Q124.42-18.99 125.06-16.83L125.06-16.83Q125.73-19.57 126-22.9L126-22.9 124.69-22.9ZM116.69-21.91L102.6-21.91Q102.56-21.73 102.11-20.88L102.11-20.88 116.01-20.88 116.69-21.91ZM119.2-6.03Q120.38-7.25 121.36-8.59L121.36-8.59Q120.28-11.38 119.7-13.99L119.7-13.99 119.16-13.32Q118.84-14.76 118.26-16.16L118.26-16.16 118.26-14.35 101.47-14.35 101.47-19.66 100.66-18.18 100.66 0.18Q101.83-1.98 102.22-4.75 102.6-7.51 102.6-13.41L102.6-13.41 117.54-13.41 117.54-6.08 119.11-7.02 119.2-6.03ZM155.84-25.83L155.84-32.76 162.85-32.76Q162.59-33.52 161.87-35.14L161.87-35.14 170.41-35.37Q170.73-34.74 171.36-32.76L171.36-32.76 177.16-32.76 177.25-25.83 155.84-25.83ZM137.88-23.58Q137.16-24.12 136.31-24.39L136.31-24.39Q137.56-26.46 139.05-29.47 140.53-32.49 141.48-35.23L141.48-35.23 149.49-35.23 148.68-33.16 154.66-33.16 154.66-26.95 153.63-25.24 155.47-25.24 155.47-4.72 137.88-4.72 137.88-23.58ZM178.65 1.26Q176.89 1.44 175.72 1.87 174.56 2.29 172.98 3.24L172.98 3.24Q172.75 2.65 172.62 2.18 172.49 1.71 172.35 1.4L172.35 1.4Q171.31-1.4 170.59-3.73L170.59-3.73 170.59-3.69Q170.59 0.45 169.56 2.34 168.53 4.23 166.54 4.23L166.54 4.23 162.76 4.23 160.83 4.23Q160.92 2.16 160.29-0.04L160.29-0.04Q160.06 0.49 159.86 0.92 159.66 1.35 159.53 1.71L159.53 1.71 158.63 3.78Q156.96 2.7 155.56 2.25L155.56 2.25 155.56 3.01 137.03 3.87Q137.29 2.65 137.29 0.45L137.29 0.45Q137.29-2.25 136.94-3.33L136.94-3.33 155.52-4.05Q156.47-6.3 157.5-9.22L157.5-9.22 163.13-7.69Q162.13-4.68 161.55-3.19L161.55-3.19 161.69-3.19Q162.72-3.19 163.03-4.18 163.35-5.17 163.35-7.33L163.35-7.33 163.35-9.18 163.35-9.31 156.6-9.31 156.6-24.43 176.58-24.43 176.58-9.31 170.59-9.31 170.59-8.01 174.64-9.09Q176.63-4.09 177.97-0.58L177.97-0.58 178.65 1.26ZM145.17-25.24L146.88-25.24 147.78-26.95 145.98-26.95 145.17-25.24ZM143.37-19.26L143.37-17.1 145.03-17.1 145.03-19.26 143.37-19.26ZM148.41-19.26L148.41-17.1 149.85-17.1 149.85-19.26 148.41-19.26ZM168.84-15.97L168.84-17.77 164.25-17.77 164.25-15.97 168.84-15.97ZM145.03-10.62L145.03-12.51 143.37-12.51 143.37-10.62 145.03-10.62ZM149.85-12.51L148.41-12.51 148.41-10.62 149.85-10.62 149.85-12.51Z" transform="translate(-2.430000066757202, 35.459999084472656)"></path></g> <!----> <!----> <!----> <!----> <!----> <!----> <!----></g></g> <g data-gra="path-slogan" fill-rule="" class="tp-slogan iconsvg-slogansvg" fill="#333" transform="translate(34.834999084472656,45.91999816894531)"><!----> <!----> <g transform="scale(1, 1)"><g transform="scale(1)"><path d="M2.30-8.58L6.61-1.64L6.61-8.58L7.73-8.58L7.73 0L6.42 0L2.06-6.94L2.02-6.94L2.02 0L0.89 0L0.89-8.58L2.30-8.58ZM15.19 0L14.34-2.48L10.88-2.48L9.98 0L8.81 0L12.05-8.58L13.36-8.58L16.45 0L15.19 0ZM12.61-7.31L11.25-3.52L13.92-3.52L12.66-7.31L12.61-7.31ZM18.89-8.58L23.20-1.64L23.20-8.58L24.33-8.58L24.33 0L23.02 0L18.66-6.94L18.61-6.94L18.61 0L17.48 0L17.48-8.58L18.89-8.58ZM27.52-8.58L31.83-1.64L31.83-8.58L32.95-8.58L32.95 0L31.64 0L27.28-6.94L27.23-6.94L27.23 0L26.11 0L26.11-8.58L27.52-8.58ZM34.92-8.58L36.09-8.58L36.09 0L34.92 0L34.92-8.58ZM39.47-8.58L43.78-1.64L43.78-8.58L44.91-8.58L44.91 0L43.59 0L39.23-6.94L39.19-6.94L39.19 0L38.06 0L38.06-8.58L39.47-8.58ZM53.11-3.61L50.48-3.61L50.48-4.59L54.23-4.59L54.23 0L53.48 0L53.20-1.08Q52.22 0.09 50.39 0.14L50.39 0.14Q48.66 0.14 47.72-0.75L47.72-0.75Q46.31-2.06 46.36-4.36L46.36-4.36Q46.69-8.63 50.44-8.81L50.44-8.81Q53.63-8.63 54.09-6L54.09-6L52.97-6Q52.50-7.78 50.39-7.83L50.39-7.83Q47.72-7.64 47.58-4.31L47.58-4.31Q47.58-0.75 50.44-0.75L50.44-0.75Q51.47-0.75 52.22-1.31L52.22-1.31Q53.16-2.06 53.11-3.61L53.11-3.61ZM64.13-7.13L64.08-7.13L62.11 0L60.89 0L58.64-8.58L59.86-8.58L61.50-1.59L61.55-1.59L63.47-8.58L64.73-8.58L66.66-1.59L66.70-1.59L68.30-8.58L69.56-8.58L67.31 0L66.09 0L64.13-7.13ZM71.95-1.03L77.11-1.03L77.11 0L70.78 0L70.78-8.58L77.02-8.58L77.02-7.59L71.95-7.59L71.95-4.92L76.64-4.92L76.64-3.89L71.95-3.89L71.95-1.03ZM78.80-8.58L79.97-8.58L79.97 0L78.80 0L78.80-8.58ZM81.23-1.92L81.23-2.77L82.31-2.77L82.31-2.16Q82.31-0.75 83.63-0.75L83.63-0.75Q84.98-0.75 84.98-2.25L84.98-2.25L84.98-8.58L86.16-8.58L86.16-2.30Q86.11 0.09 83.67 0.14L83.67 0.14Q81.38 0.09 81.23-1.92L81.23-1.92ZM88.13-8.58L89.30-8.58L89.30 0L88.13 0L88.13-8.58ZM92.67-8.58L96.98-1.64L96.98-8.58L98.11-8.58L98.11 0L96.80 0L92.44-6.94L92.39-6.94L92.39 0L91.27 0L91.27-8.58L92.67-8.58ZM106.31-3.61L103.69-3.61L103.69-4.59L107.44-4.59L107.44 0L106.69 0L106.41-1.08Q105.42 0.09 103.59 0.14L103.59 0.14Q101.86 0.14 100.92-0.75L100.92-0.75Q99.52-2.06 99.56-4.36L99.56-4.36Q99.89-8.63 103.64-8.81L103.64-8.81Q106.83-8.63 107.30-6L107.30-6L106.17-6Q105.70-7.78 103.59-7.83L103.59-7.83Q100.92-7.64 100.78-4.31L100.78-4.31Q100.78-0.75 103.64-0.75L103.64-0.75Q104.67-0.75 105.42-1.31L105.42-1.31Q106.36-2.06 106.31-3.61L106.31-3.61Z" transform="translate(-0.890625, 8.8125)"></path></g></g></g></g></g><defs v-gra="od"></defs></svg>